<mxfile host="app.diagrams.net" modified="2020-03-25T06:21:52.181Z" agent="Mozilla/5.0 (Macintosh; Intel Mac OS X 10_13_6) AppleWebKit/537.36 (KHTML, like Gecko) Chrome/80.0.3987.149 Safari/537.36" etag="YQQFWGjpJOQGoXzrSZHN" version="12.9.2" type="github">
  <diagram id="0qP-XKJR-WPcrbTf7bE6" name="Page-1">
    <mxGraphModel dx="788" dy="645" grid="1" gridSize="10" guides="1" tooltips="1" connect="1" arrows="1" fold="1" page="1" pageScale="1" pageWidth="827" pageHeight="1169" math="0" shadow="0">
      <root>
        <mxCell id="0" />
        <mxCell id="1" parent="0" />
        <mxCell id="4ZW2YdV1ndq5W9FQAFgS-1" value="Camera" style="shape=image;verticalLabelPosition=bottom;labelBackgroundColor=#ffffff;verticalAlign=top;aspect=fixed;imageAspect=0;image=data:image/png,iVBORw0KGgoAAAANSUhEUgAAAGwAAABqCAYAAABZP7TQAAAAAXNSR0IArs4c6QAAAAlwSFlzAAAXEgAAFxIBZ5/SUgAAE+BJREFUeAHtXXt0XMV5n5l7d1dvafVGliwsS7KMQRbBPsLBgDEQYkpomkOU0po0rQFjA07rtIf8UXrEadoczkkCJchGTginzss4pU1x0kACgRNTWoMhDWBbtl42yLIlS6u3Vrt770x/c1fP1equdrW7Xkl3fK733pl7Z775fvPNfPPNNyNCrGBxwOKAxQGLAxYHLA5YHLA4YHHA4oDFAYsDFgcsDlgcsDhgccDigMUBiwNLjgN0ydUoFhWqF6w4o8PhcQwqbFQTRhEFBeYldXX50wPfCxGvZPhEZ+V1XnIL1YIVYAEWjCsyTghKvttidzpYEvfwXIVq5TpR0gjjMeUZY2yMUtqWcVFtO1u/aiyQPDUwYtk/S6CeeIJm7v8wk6kp1xNd3Kuq5LNETcmTzPKL1xSXJHqBcVOp4d9RyojwjjUN5Wv/hK9/FJhDTFtLYGGL4Tmr4UwNo+zPBeH3UKZeadAsuJS4+JHPFEK4eN7VzR4hAVJmSRhgyHymebWi0M9Dtr5AhbgK3EqlhCqE6/EDKaAkNBh7pmMkeYCQGd3isgUsc985p0q9d0F47hZUfIpQkkUFScOvjRCaGD1PZgCKeFw+gGFsynj+pFPxqrWEKNso9dailysEQNmQplQMRIkB0myMZsQsecDyGrrTdDpwNW04s5Uzey3AKcOAdAUR1IlfNoMbi+BhaQJW/4aak7eiQlB6gy4GNkF61grGiiBCVwATux+XOCoRUWwISwqw7IaWEkjQRk74Rs7oVZSISvBqJaEsxa/lSZAWJ1ATmC96wLKe+n0WSU6tZjq5FmBUC1xQGSoAUKZfdwBAUi1fImFRAlb8nU+SR2zecsL0qzEI1QhO11NGawBWPiEMgjUuSfGcO8WpQSwewJ5pdmSqYoVCacUod1cxSjdwQm8QTFklAZL//L3d0pGmYG0gsQFrPG7L03JyhMKLdaJXUJ1cD1huhK3takGZDZNczHEv3+Q2GENjHZd4gMEynlV6NkN1ewq4pq7iVN8AXLZQweTk1on+zs+TJTQuhQNywgBW1Hg8xcPTndTbVMhH1RpO2GcJFZsBT+EERuFUbKm+e3kBw3wpO7s4ReVKstsnrqOKfrdQVQBFSqCKw2w9Lk1LlfsR1Cv+gMnlizeJUnC8y+FzDJUSG6vTiP4lzJ+qCAU5bNwyboEVFM64A1b43d/njtkyP+dL0e8nqmOTNLMKHYurxhLG8lIggiISIjIugDkbWzOFYFso1//US8RWJrgTk1qF6HgKQeCyTZbG6CDm6NgB9kJ7UpZbq8XE9vNC41sY4yvB/GRcDlyLzuiaKA0nuoAdFkpWb0s11fk2OqptQQu5Eo0kC/BkQpTGja6JUvUEp4NizXlMmSVj0QCMZu0/VapwZQvvadmKedIaorAiAJQLwBzQHSanTgnOokQjj9KktFkjRoSACZreeCFH1UY2oQncDFCuw6rtFbhfgd5OWsb9Xd6s4hKNJ4lODxwEAkJYgOU+2ZSup9MaIpo3Uc5qkFcF5KcMnj7ZhiHPUMUtlAJ4HNXH0IBh3pTX2FbOufZpWB9q4PewDmPSWnR5RQROdMbkdpmaiaKKxDwzCwlYznPtGzWhb4cU3Q6wVgmFOfwWCEiSNbmdJ5uj95q5eg1DrOD8LkwI/gJjUxUgchA+bomIHg1WTmFwwBSwvLxLKYRi/sSUjKW0ahsGfxLuVVPAPJ5Ldmjlpu8kXI2WCkFYkaWe9FkaXMgxLGj9KZE2pUtI68E4NjPTQB/MgGSZHxYgZax/UjiRPvHdxHPQgscj/e+qyKMAmeSZvboo07juA3eG+sUFTyD9poDRJH0mGMbXlAOkDnB9H9e9/6b6AF4EwY9WBB/KT1QG/ceRQZj2IOj4KrSfpdQL+MD0j6CJ/y/Z+2l3IIdMAQt82XgW3A1/v7f7dpV/O2h6/CI7yeETX8/usT+AIlNxLagNxI9s05I0tMQPAdaTrocqDgd7M+yWCfTHwJmeYJnFPa5unRddvdw5B9V1kQdFxShDfqETscO1KzhYsoZhSxjGH/RAEwNOQjAJBEnhCtJ7JwR5IYgw+El0OBP9M6NJjb27S86bfRE2YP7MFn+DNmNK3NKkAi54J8B63M6VIxddxb2hyo4QsFDZWukhOWBs2tOPYY77OKxH71y8UDZE6qHQhQghAJMblGYqgbLjkR1QREHaJfedTBU0eQUXLIdRn82j865MX8q5jr3F2LiGIXc5BAMs7V8xu9nnoAMfde7cILXBedXdFDAxNkxJEubOM4OA0XdmTIin9GdP5aiE1dL9Lbdr1L4aa3NZhOjJmDQwm8LcI+pYT86+5uNEO/1r1TN2ouvv1o+EyDIgOZDEgOTEeZSEDlKufYty5XBPflkrqYN7bBjBFLDxedgMgTJG+JCCO0WB83tt1UTT70XMZ6CsrMJqJjYpQHHFYDuRMabRHBaVjcRGb/epKW/mNJw91JtXemb+lZE5JTxoGkhsgVb7tF2n/35xz2ppeAg7mAIWdm7TP6ivZzn5f7YVYH0FxovbIZXYqACmwvfGsPJzuErJtWjFZsOzXKYpwue4eCWnvjJn7+nn+urFMfTrQc+rmF5UQt8bWqAYRaXfpkTZ71KTXyEPF+E5shAzwLLytt8MDWgPILrV2J/FpZmfXKRCfx894RnMDLplxworjJNC8jB83Qg0CyB5hZC4ezDjULMLW7jLD1oYMh0ZI2LylV8L7EWD/SUT4mDvI6tfX2g5MQEs90BrpdD0+9HN3eLfTMcHAdx7AORXaGlHicZP9u2pGDSIl96/hcWVsC5tg5T9Ca5rAZp0M7gbFe3LzT/twiz99EIrehm+R+/H2/HfS0IXP+7ds+YP0aAh6oDJvVtuzV0HCboJAKVhePKg5zsKaXq6t7vjTVJ/y8wuDs8uQk6iczyV29h8hgvYBoW4HkCnQtLu1JnyEXlDtM51lE80mBCDPKRqfRLXD71ez49H/vqa8XOMFl5S1AEbSfasxk6TO8D0IkOroOQEyHyhd1fla5JcA1DbaCnmHllQQphO+cWB3RXtkCrRQyqOZO9vhu8izUPrrEZcKYxOm/I/bHm1m5DWhVc3LjkMoF7H0bs8bx8dftkVtsZrTmPUAaNc1MJ7Hh5U8gweMYox92VsujPAyms4kTYq3JuwQfw+kHUNMLIxwY5mH2h51lUhThtS5COvwGB2J9LLAVwKMlmnMXIdnhMeMHT7l0DvbzjX9/U9WvXf5qyPLDXqgGHHarWhuoMeVKAJEvJ+367VAwRjlY84NmJh5B9hj6wFmAbFVFXWUU2rzGpq2tFfLz527aGDOc+1vsO5uAHKejneKoOk4nSaRA7GXKob88sf+QQ7MPhoZUusqA1vBjwPKoDDSnQJKZAOeBeIswrXL8jPnM78Ikb5NgA6CZaRndwIYXPAAdV2h/OKtnQZp+viFMBCL4hAaSYkFlOChA1y0bCDC/3rRKPfGHy4PGZgSQ5EHTBIVyFkK0lmDsVjmFPFvwhnd2Rg0oUDTfySJdMngpDbXgUttXMh/e6BEeuFePqtHehZQWRa7pNvGWBOfJMQv+jv0Zigwer39atDP3VNaL4xJC7CLtF0WiRVeA0SYpcWDNTJeFnRqZdTMWIoIoEVAigK1c95xoYMwyVWsu0KwsRrGMDdvY9tHpp4ToRfak/GMXmjL2mj4qGhv10Tt/XBqEsYwOoCWDDk4o6xCjC7xGDwiO8CnOb+AMC8EKEpngMsonl8GufH+mtqhmWCarOtRMuFvRGB61BcBDT/RAmgHUetCd/YPwhF2TH0tcqQSyLRpDzqgOE4hndQI5fECz6MODuD1pTjyIaex9YMY4PlEfjs/D2uj7GsgBckcLwZAG53pGc0Q0vEgisidb6RCWyb9YezOqenxu8v9w/GK9GK8xTvJj7xL307ywZBu6xp3ELUAdMV/haoh2ET9ZCTXyZu67PRG/AgXOc7LmpK2guMKl8EaNuh/n5BCOUeZtd/1XVfgbSviZzG1q2QrpuAW7YhiZScghC+HzeOzF0Q6KNvYIXogaQx+2/941V8wZKkRTiGzY1zWlby6dEet5yDwD6ILUdCbAJ027MPNHe5Hqw4gYGohxw+3Jd3actJh9ejd+wt8SslO6BJNrRuhgLyN2AMJs1EHjDZjRZ9rC/Xe2ZuPsY4Bd03xmJorOIljfu+P8BtJ/r3lsxyP4sxFZPZRwjY5PezbjrqStw5jWcOcY2vB89vgpSlQb2/S2gkLXtf8880u/f1wbp1LoigMV4ZGdQLu7Ow/Q6q67vxvBlXGoCW+uRrGPd+TeBsM6ugOEWAihZI+kGmay8OPHLVjIaDrcArsXnxK2hcxVggek/h/EjPo1WdsSQtQsBMtUSSPJL8wYjD/T20SuxlZjVYPIGpSdwJAMpVr31bdsOZdsR34dQ1H4MbuOCtVQBVHpxSDelKMsY3XTuKpZif9Hsx+TYNMeiWpFIkhIau+W0m6A+ET7zes2dtx3Qy0Piux74DNDBxG1YbsN2K3Mgpa8N3F2I5rkUI2HTSZ9/Lbi77meZfUkU40MWhUnSDMZ4RnLgmxHowApqVGIBigUU9ngb2rEAl8SMZxTV88xYe96FTfIvsrohv92OAxYcwhr4OYp53KKm/7dw9bf0Kxylli6xbcdr2XlC7BTTb0BDxI4+tYMXy6HQ8xYzmCAGbewyTtMsgB+WCgxd/5hseknOvOgC1EQyQZxfiuDUYd6WLtcxG1hY1B1AQW9gTKT2G6eghNqi/3fNYxTzmXoDfyAB5LDT4JesT0PcLZHXQ1XX+eN/k6oKgac+05Dp0ip6C48gK+2YCj+rJgG+F0B0FHrcK03yiATZJpulN15cLR0jj8Z87valNVFVvg1mgFqr+SgAjj32Q5+zKAMcRIpWLs4j7nWD0tT7n++fJrjrdNPPoJ0oXdNn9vqjp+g8HHq1qnyzC2GzfVMK48scYWL9KFHXVDLAmX4z9TYQSZj6GzSB75wZfH4H7sRAf5X+/PV/TtWp4BJQZoAElOHZdAm6nbG73B+E738woKeIHNBgPlIt3MdM/6E0WPx/+q6pJfws5h+ztaV8DhfpL2Mf9ILrqXGivwcuChhQ8IXqxEQIWAQGYYEI3lgt5v4ng6xh9YvTF0pT2P7ChfTNtrPsd18NTGxCKGjtTejX3pyjVdmD+dS+6yvHdpzEiZx7Zxg+weRAT/1dEL8D6L4Vr33D1VLX111dg6WAqeH0jVfAZwu4Y5Z5xk+hUYrA7Gtu/yyKLXK6AoU8TA5gQPOW6VPHkXJ5ZWBC/Eqazq/FuMHguS1xkgIXpSBrTmknbo+zZ5hswv8L7H+OM4L29D1X8p9lnOAmVCZ2oUnlMlBAJYPAj1NMSpQJAKwcSEHqe4VfZMRlmxxRF/WLPziuNhVXTesyhW5h+E+PE8AGjNJ0I5VbM9Pdy7nvJpyWNEa87rm0w2SZN5GqWnkQfQG8lFzbNy5dLOIL3QSk95LUpT4zcX9pNdsaYszHKPnzAoC6BlhLw6HHGbF9z2LHiYI/vuV9c0oA+DQ4vUtJDgoV1VLls/zQnYz8ZOX/NAOZ7CTMopT7dVmC3YSJOxFrQhTUnnBWObgAN8VXXIxU/CMTdFDDjNLGkoCMuMhZygdG/yBiYa6yfjUEFPA/JdgFThP47OP40eBk5OrSzGlPCMAJclNEuwEF8E7Is4535vDVFABpe0nMt38ZBQjcDLDS+SauNijI/mXpx6s4UMP9pYl7zFjyVV6LdDaKx/gck8QBN0j4c2lE1DzNXQBVkO59iYkBiwGN4UBkfp3+zKVs4bVhKEiv85YznCe8Ioevwz5wdTAEbyD02mNNzbSfMfKNoASmzP0/EGLQvwdtglfgpjgE81Mf6T5MdG6YZ/cKgGYMecJi/kih76cA/UmpSHA5ac9gEx3gy/yJMASN1dTrf33IEHgzSMbQW9MsTF41KzEWHkW6mavs5YJrHXHmHisdCo4YurAU9zcvE5321b89Vn4AXEbT9UCUFT8fYU+YbGpZLLX6Pr+CvTcYmM9sKGJJtkxHzuDEHDBlkdinv9eeRp6jQytF+YCwDS9CE58pb6Pi7QlhXkcu0Qd+B75tUGczyCPrdfCLhDSKEep5kZpzs254zKG0U8QtGdf8IKxDDzmdb32XwLDIrG4sWqXBTr0NzyjV7LzAtJGDjf5r2//ChvKxgxgHK1mI14n7K+Gegr4xJL79gr8PvUq6np6PZrkd6WCp2SMCCFWjFzcEB2fEwWowxCZccmUzm84CSzt1RzVHA8rUlzsmQBScYI0Hw0WDBeSMDkyYQjewXeR5yrMVgG2JqHtdKWoCZsduYMsdPy5xBCsa5Gc/jDxZgwbgyEYdFMCgHxvR5Iipuv3MoLBZgIRCwusQQDEqkZPRJHlzShTxhgiVhJlDAcxkb6onfldzkvXgmWfMwE25T3dfPVdZNjbOh5jTumORglgTZncMYZPaVBZgJd9LT7R/0u8l3iKZ1QLUvhoJvZiU1ySkgCflAckuRJ/xFwvOrsQAL4OX0x7N/uWoMrm7vjvrkXm1fMqwYhrVy+jtU8XtqT48zuxe6D6ZWm9AVYcd+gh2Qsi/jfafZN9PTLMCmcyPIfedOw6/+XJCkBUdlP9v8IkwXn0NGswGTE/YgwVI6gjAlXlFUSfoYsMzwhZwsew77igXYJIfif4N90kMYx8JaXLUAiz9OkyW6XOXDAOwV2O1ll4sVGbjK4KI4YRvDZVBsrDFskn2X4QZn/LIDrQc0TZwDOmU4mtAuN11RDgdWob95GSiyirQ4YHHA4oDFAYsDMePA/wODuTsyMtwT1gAAAABJRU5ErkJggg==;" vertex="1" parent="1">
          <mxGeometry x="490" y="42.730000000000004" width="40.75" height="40" as="geometry" />
        </mxCell>
        <mxCell id="4ZW2YdV1ndq5W9FQAFgS-2" value="Video Edgebox" style="verticalLabelPosition=bottom;html=1;verticalAlign=top;strokeWidth=1;align=center;outlineConnect=0;dashed=0;outlineConnect=0;shape=mxgraph.aws3d.dataServer;strokeColor=#5E5E5E;aspect=fixed;" vertex="1" parent="1">
          <mxGeometry x="560" y="116" width="46.42" height="40" as="geometry" />
        </mxCell>
        <mxCell id="4ZW2YdV1ndq5W9FQAFgS-3" value="" style="points=[];aspect=fixed;html=1;align=center;shadow=0;dashed=0;image;image=img/lib/allied_telesis/switch/Modular_Switch_SBx8106.svg;" vertex="1" parent="1">
          <mxGeometry x="341.87" y="117" width="58.13" height="50" as="geometry" />
        </mxCell>
        <mxCell id="4ZW2YdV1ndq5W9FQAFgS-5" value="FR" style="shape=image;verticalLabelPosition=bottom;labelBackgroundColor=#ffffff;verticalAlign=top;aspect=fixed;imageAspect=0;image=data:image/png,iVBORw0KGgoAAAANSUhEUgAAAGoAAABmCAYAAAAj4wTsAAAAAXNSR0IArs4c6QAAAAlwSFlzAAAXEgAAFxIBZ5/SUgAAHd1JREFUeAHtnQmUXUWZgKvqvvd6STrd/XrNRrbuEBIMAmEHDYIHFRQcR1A24aBiEoj7csZztGU8zsaIhnQWNhcUR6LgDKAeBCGyS2AgkK27syeddHrP0st7996ar+5be0knpN993T0ndc59t27VvbX8f/1//fX/f9UT4mQYExCQiVYW19Z9S0q1WAqdn0jz4e5oKeq0K+7OC3Q+23j7gi4f6vC1yMJ7N89QVuCrQugrlRAFvlaWLFzukhMe2B0ORnuuE4GcFTram8zyLSIZG1p3aSU+0y47/yxuXxD1ra4MF1xy75Y52lI/FMr6lHCdDJc+VHGSKp3IeC30VdrOEry0FkLKfOmIsyvcouKhmjfa8pyAqmSUXZhdJBkoaKF0lCHuipxsA0VLPc6xQ4Fs1zus+hyYtpD2sMo4wY9hs0MEw6YyfSnLY31Cy7+1hA40D1H7qMvS2t1No54WgSBwAXSZhk16ef16P8SINnKGbpGucGgQ/Gr4QQvZLbS7BUJeHioY97y4uTpL/Hb4bTcldN45Z0fR8o3/rGyxV0t5lXL15EzBJtlCDa9RgtEsSw3LSwRZtHzbNCXtB5mtLgOIiXQhgznCdaPzC0OqPnDITn2RfOO9RxrMJ20RypprixqGwFgMAFL84HlLzC1XVftDSak5U12xCwKyM+JWKxVcny7cDUFRQlhONLLjllN7Mz5qMtWrkSgnxl28ecobeJluAwOhdOWWiFaw17Qw9ByV9uLJ6MhC4CSiRhb+x137SUQdN6hG9sWTiBpZ+B937ScRddygGtkXh5T6RrZp77H21TpY4TYV96hDBUqofN3rBlQo1OtEdbfOszoP7nmwQ9TUjM0lAaAYk4gqXb1johuNnM6K5kyWDu9jMTNTOA1lrJ5zLVdgAHCUDJDqRrQVYNUYibrhshu6dO0NTaRulUq/7Qr1hquDGzsXT2t/j0NiRF4fM4gK1zZMdaV7udLyI64TfZ9QslgKmYMmPldIHQRhFigBSQaOaevQxFKdHFJnkXkOeuFreOyxRORAeGXD68LWf+lVkReOLJm3f0SwcByVjm5E1TwXKKmYdJZ21bUoVj4ktZwCDsaDCJTIKFoMVjyc8JNAyNE7bd40q0ijqIvb3GQF6pdqkP6JHBnclbOy/o8ob9a0fbF6w9GLGZmcUYuo8PL6eVrp21moXw61TALK46EcdGAmDIIVo9D0svrnkR7Pin2Wnk95Uo7jMy5ZAs1VaVtfE17R8ITj2A+h29seK3Tkf0cdokr/bXOBLlC3YCO7EdY2BxBBQYZ6+geDAC7tdpCzGSRsgaV1k3YhyfNhieQrbu5z5P0FtXIJiJ4Bd5wP25tOHrNXOtLMfK0NO51AeaeogHVx8ar6B9tzAr8Tt87o6V97tp9HFaIMFblS3gnAPsY1EWD0a58hDd0D4N8V0n0ONfPLjtY7dEAeCopIl+0EZyshp4Oh+bznIRLVbwP6/4cjQvSGLJVrSTsfzjnRcaPnSikv5bXzzHyXQppHtSBMXAhyp4a77PeL2oafti2pMiaOEQv9ADFi7RDFK+quBFhfhk2dRyvwRUjwMtMmD0GdAP8Z7bq/k65aHwmqltJc6+COW2YllcZFtXUVmB8c83YigK6o1e10Hv72nEOJNPGc3lq4adfbwuleA2FNV1p8lLxPUeXMJMK0CPHtDKjwVljizKLazfd2LJnzXLKMLEdGBaLCtfW3AaQvgY/TAVRuOgxAF2wHBAnrYUfb68YFC/Y3fnGiYXH6sHnx1vS3jzN+qbTBuhHL28XqdXtwCdjQK/WTuAd8mmI/K4Qq8SiSCIMkTLuuYG1WGl5ZF25bNPv3x1lLRl8bcUSFV9X/IyP2SyDoDHqW0u17BKV3AbD7tCP/kBvM3d54+8TuToa4uD2DMMC5pkmIAyCsPewUbmP99RoS5hdgiR9I1aLzmbvOJe3OkhV1na2LZz+TystObJBJOjsVm1rC9266Qrh6qdT6fTz2RZJ2XyDtm71ReV9bS9Wmxtsn4VoGkvwKIKxtadVepSN/gL1+lwHyM6rqTlRHxTlc5yKMfIM13YWJ9GzdRwxRRSvrz8SqvBTgn2OAkOwwlATinpTCuit4uOupw0urm7NnDZa6ecm8w+3N9t8RMO6mTau50t0F8kDgRVDcIqMdSbY5C5ERQVTB6sZS5YpFzDMX0cfUnGTEaaF/jUfAjwry1ItN3zzjSBZgMLCKmnmRtv176nBdWEV7VvFCyomPdRfCyuWuG1k0/WfbU20fWEpGU2KIQlLKaKnHKCzodn2OafoKXjNrlljwKMl9QrpyRVt55I0dI712qbnUbjmwcytLrYegojWe15FpqVFTCVlG+sc7u93L4q33/aYCOhBlZO/k6lOZdmzR63a2GOmqT8YwHzyWp8XVdHgSRcUqNXVr/TLKuNoJ+dab4tp5LHtGQQBZHY7cJF39AIreF1Iw0hYMuhqt7/UFyzchIWYwAG8DdwP/9KCsnvZObYtfoPNC72zgxoXKWTjRRw+1jE+tPdK/OsH4vJoNIdYsN4OV0ykiTeLUe6h6leUWvjTilNS/b0urewMTCl9lfbaawZVa9Eph9IXnB2Xgmv6fDPfZg7u2f+PhwSNgXJqbjjze3V7R+zqj4/OQ81NU8pJw7f9UUn9PfH9u+kQ63PrF3nBoHkgyElNhsjDjyOjqx1yl1jYvKfeWRsm8URJpurnyiBLu86ieHqFJMQ4DC6TlkxlgV1esbCjPaFOBu3KsGoMHyn3J4EV5xjRYTa41/rcyEPw2ToVL8XG+p2XxnC2ZZnuWhWpIy2lUnhJitFuPhPXHdtG+L6OdzXBhrU2NTa6wzEBmUMc4dlxanRsxiuNMBthfyx2z6gwePHyAlyT7ia1ThG/q/bLaDZVILB+kj+Fkn2gQUtUaS0XXj/pdHcxX0WX1m0OWfpI+nJvoA4Q1EWq7Uvx49+Pia1OT665E/nDurYtO3cv35kob2cMp8Ti+jWrrPJiFoabUwlboLShRn23Z19R8HEWM+CuHK6vapGW9jDJ3a6oxOo/BNrckD2OmjyHFgnysxBStlLWQW5mJeyEmuKx1RHSbYLQmkkf1/Vrp2K6zXbt6bUoCNHxQVrra8VVUzwqi8ldvnAg/P5N5OLVu0mz40eKVfFV4YFQjp1/jco90N0klX2A5kT64wgDyQrG6MW457vdRBh6zgqiQHZrDsDOSkZXW5gYmqHpPE56WOJyolAGXwcCYSA8kZTA0fWN+l+vKBirZkVZsiPjkcPTIjLS0jEaTwkRGSx1QmIshz7OcpuW4Lzuu3ndCkmXthvFhkVMsLF0gbV0AcsYzBCa4wp2L8Dw1IUGbypS0VE/ewVxRs6FXoBpKa8CJRRGAAqu2NjmuXEc9VYlCQFwhbWD54Y9Alh1ESWkWuCm2Z+Ynrd6VdmBIV63SBzHL96gp0MgU4D0Zs/sU6GMyWgHM6vg5uCJXK+PoohjROhcZ0tRRmiQqlIau0JeHrAkV4TJY7Yp6m4nfrA172aOFwVEcZA3XiEZkT0DIvSqi9hzomHFMJXCPndMWkN1vI1R8JjEoQFQBrNwgypfgP6IefdRSLXo6FJXk3wC0F3lze0d+65Fkr8x2k/t2Vto6Uq1cOZv3Z7u9+hQozhjxilyti5AQCwFuIWsxw2p4BYQngnEGi69FE0kGYSC1iroY+SxXYxngCguXYI7RGCWl7CTe4Wq30wnpjnB5Q6tYXr+b9I2Y+Dfmibyt8aVLsthDwckHS+xtdTq2mddj5/QJE7+YlnwpwxHfETW+9Sy8e3QRnUjOT0Bqn3Blk1i8IFq4om5mQKhL9KqtZ0Itp4CkSpb85VrrCvqK5xG/IMRoHPkubpHyHo4TFAPepURp+m0uo/2mbSzCTR2mRLxhQKwx+++TrruvRx/eU7SioQHl3gYd1a+3La3eI26XUWd5XQvvt0FVMUlWGlMN7mc+Ba9tPpXtFVu6ouFs2M8veEixBSleAfC/ZsCXAsYzgdFc8plbJM6UxEiM/5hIPJDhtdb7IR6/m1wTR1UJjHu9x3T7lmdPgtxUAO7Ge+myRjKeQKZXcay+RPkUSmo7aGThqTeR+aorxVqlAyDGvp9nw9ZN2yAw8Wpbb+5lmV74muJ9pyhXWWXorGKsytRogpbToQ7sUWISI7KIFLppgMRlbiYYQHnAMsCF1rRu5bv9WrrcGcmubkNSaCd+kK8PAc4uLVUZLOiTpJ/llWe0cVqv5fPHcKPlFXcc5wCMp+ACHou4wihbwwyaMA2oJF6GMZPKTTvil5FHhHE144rNQZcYZxik82bkChbv5JpgiF2JnNKgLm5JswzHMof/6zuimLvH0Zkk24s3eSJImJgGjFiyhxxmItfpBarbAB7zgN7Bu7u476ecdijnkLaCh9yIc9gOWYdzup3utpzObrFoQbR4xbb5Qjrn8d5ZHrApD/RsCXV3/dIzQqK9D4crcy1rf35EBjnrAqlRuuNFwBqPNy6IcyuF40yF9U3jw2rKmQXixqe1k35IzDN6Evgx1NtHaY0nb0CrHqNwboz3M2M33xHFwMwBXAzt+Mjzmp5GOeZZkY3JFGS8Kx3nDQDzLl9shefsDUTsppb801rMvDBYr1PSiCECW3FMUHpF3kh33JzYetFYboUwIvrBwcoSj2qronVrScSOVkgRmIREOV067mlQzvtp8ftBGoKMoW6vN2ZO4koP2mxJSEm36VnDjPuOKNhECJYSA1T/xnqsyT3IKH6Rd16Ekv7X1aFNHfNm7BW4dPV/3fdnVESeR5LxShLiHVGjVVnZxnJb51ZB5mdI7V7EaPgACJt8lNNbAjbU6Uc7fUcUrNuwvb6jPNYTJl8Xg5z4b9eynu3MP7xJ3DxCPhJHgyxHLDQLAcvlWq1fK4nUPcs+ngtAknHY/Bjdgq1DXsnAiGSkJR8zGPEdUbAKBKYBBNXDpP97Fp2/snLsl9pvq86oJTmD8EkVBettNT7uNbqhuGTzOjxsdyE+3MILKVO8GY5IR6mPMhfzH1EDcOQ1/i0suivbS2a9KmA3metOFkqqkTbqlHcKV9evtBzN6Sryc4laWfsxKH3BE/KNz4G2M98PQEYnZo/WMYekNFjJqGU0G+l8DwJD2+HYgwsqad+eSNR3RAnXeheRjrWO0S0kwxnatj+acV+DZPH+RozzpaWcG2DpH0mriTOjRHNU9dSlpWUs6jvra6/o2RJuCR5AWjIsLlaflJVMwouiHPpUWtvwlMi117XclrbbImPdy2xBxuGys6f3bFYSn4ZL/AOIqUzSlNY9CE7bDy8+w0iMGQ++I8rz0auta4aiWL+wzjDBrPolfnFaL0bUOFdE1PNFK+rXmXVU54HqXbgwZ180HwK0Bau3lIZca35nt30O66vL6cBFtD/P60f8O5YXXSx4dw5RzLCy/EeU1zyFlKvNQjM/2VoPWSKPDl+CamgBc3AdHV1fXFb/rlpV1+A4Ypty5DaUoL7w/GQ7BougwSicPG4yp4NWadeahc3rNPzNFyAmzKO9LHoZaOZKC+ShiRd70pIyGs0Kouhko9eRwZpuVvpC5CEunYGG4gzE+S7UPrtQMOCuputLVjTsQprap5WzLxAJHuh1Qq0HX3mlU6y5doC06Fl40QtBrqmaUItYqsirJJWYiGlZ/K9vTNCFJcWWGylDbV5JOyrRB07SkehMkHIqLlssdo39i+ncQ9DRihLdyHy7EyVn+p4VRAG7BpyAj6SBj34YJStmBrPZ2Yi0HhA82GPXUXNYjswx6lDtOF3k72Wf9W476DYGAj3NxZee3SwW1qENEgeVVN2ArtfCtuQKezrUaTaexYPRlOqJ0dxDF5cs32KjIA4B7hyqyiGjQOt63p1QqrRdikK3EnGHXfcclsjmNQyV8TYZyolTkNdOb1ZKOIpiXY4Fso6oiL0t8Zzpe1YQFRXBDQFh91/UonQVRq83mZGI4wu+6EbV5MElDphYb41BDgWpqk6sJQG+yTkMUtqhtiMACSSxl4lD7qDe6fH8GKAVG9CkLmdxzREhOpdPjSmF7TOiiPIKY9pynkyZRjA1RZu4J/sQN1g3zcKEgsa+gXfWmSUHqZ8gK4EojCyiIy/v8NimqEPRwM6wshEovO0rRqUEIGQBB3w8QqQTEf5iVnTno0ubQ84UgGXMDQwiAzWCh5g4EGMp/MrxUFxKr2ZGu0n1Pkn7TpqzKdQUL9OUF3stXjTPA47FNogxL3Fp1yiC94O0Hej01zOg1upo9DUZyJlLRTfGyuRX624+2eXnOe5ZoShjSNMr67cARONhGvM7l555fGp76ezXWPiuD99f/z9If6djdqhGaz0DCE4FrpMAZTlACBPHDO8ZiwxkkjCKRc1zWloq1wDxKHkJhJiXDWJ4L4aYVmKN+FLsZr7awVkXWyCuDVqF3jHH8RSv3looHAaUxFnHK9t8LjugzjdNSX6F7CCK1sOO6Ii6CmjEEeWdVrQgvL/hb0w2e9q+gImbO9efAYAqvm/bFA7nmGUJdxpfT8TsUc6WzRJmjiLYXTGjG7ZjNpVpY+9CmuTunR1hQGWQkx7MTnlKwyRLauySIkKbDpPGXOm2IV63InUeAGe0QTc4Qm0+GOjY2d/VmnkubDkum8LTy9et0nZeTk/JdDxriHJV4E3lOvgixENsNF7oBOSvSTEISgXICn3aLhLMlQzhZfUTVEhV2K5dyS75Eku6IA0LsXaxEssi1mHToL4FxGGfQNJjYeIdBMuXGCkgRUZIAkHC2L56oNo2qGYvFezVBzsb276zINW+ZK19I8GoHWbth3Qax5RXntxlFRYZM71vIWuICjrdWx0ZNAiZCwSD8R7NtbRTNb1m+4YdNcc+HSW+pjLrqvrBIFKIfwbS3z+DIOYkgyiEAMdZ297b/C3xtQu7B/vmPaWxvoKST6HoqrTv2hFg/m625qSlZTwKJ8lOMJuYGfmvAUQjVseClJjCrYUdFT2olIYfEEbMIgoBrE9QpdFwRgZkSUWgDEpEK4HZPhG0aEYeWZt49OueNUSZDuhA8DmkPYyo8QD7YDReJtzgDGNNTSSPyjs8ljlyGtSUdj68ZmuU2IqL21t+tzmrwLEC0bfpaANzhOfW5XVOy1nsbjyzsHxXTMjwu8cnWH7Zio14MAXn8bm54kHyTwv6xWyoubKKKKMh5/TJZ5CwUlSFxx29voItxtMS3R+Nd07+mUS7LoV1J+ZXuKzeawWDz2SjvVlFlOmQI+w/IQIjDMS3rXjSmTiPky3PYldiagGbjd4fbx2PIkRYeh5z7MKktCfEEeaqDc1F0zcebzHDeS/riOpYdNoOpvu1dBIXhESQhVDaJ22ZNxMEmtXnqAqFLUE2Kugr8dNJntYCOe1HrfQXFuvGKuB7yDqiTI/YtPwEI3Mr8nNMA26ECiEXoqk+v/TBLaOLqpbV5+B3bnSRHFMXEygZSb0AbmNAR//qO4biFYwIojrKXn8HLcCLUE9HsqPS6O1wR7YtY1AcNVQ1wZJTPY0K2vVEWxlW+6CoJ1hyGFeyrIQRQZS49lr+lFI/biRAehkbprGV/gdZkyyccM/G4qz0/hiVVPzH2+OCwrkQsTxJTXyCRkO9aenAk8f4PKPZI4MoutB2WtU61DdmoYi2KB4wbzNSb7Ryc84TTOCJ5BG5s68rmpc/Hwn1JnTBZfE20DyxjQH2aPOSGVmjJlN3csVefv+2CjfqThGO2fto74ufcRBvnw83XJadZVsekQF1DsrRSxB78dtmplLqTPYlXR9uC+1s02xz6eu95ENDBi+ypPWMSlfqa1jzLUwQPXOq2fT2XKDriP/UVFOjCifeMCOAIhqNMnMiZ4ubv3iNRuw7kWxWactdxZz59aKV26f7LYF1LD2V7ZXiCZCxLwkus89JiE/Sho8X1G4OJ9OzGKn45X62nVofxo55EyMnNpiNz57U65k+H/H9eDoqKSy/8UzliO8TvZ8zdH+iCkorC4OR7htkIPRdpvAFAOls/pP3q/yd6JdFzfMxI5+PQFK281vYy/NUkTBvM3C9M/FuCljBD2d7bWVcwqJHDl0MNd3Ceg9x3HA78yONfWoNpzX7as4wlVXcvT4fdfJPYbk3US/Hf8uFCo/VQsw/N7PZzLwTC15cXWP+xy+R5Ne95c45jZatH6JBRl9mLKqAxcBFzoMlfgWf+8sm+Xh+g1df4gfteGdXxHgb3YEh8INeO2J5aOz1006u9avEq77dIaGuvNBkFcy5KGV9xpEgpCyoRqcc3eMtoLG5vjWmX8Etd1Y/D1J+A3p2gqGUFCjVea4SX+6NHrrAd+HiOR0oqjCnn8kvMU6uSiCJNqGX1K+xDv9Fx60zUsuJfn3I2OMPjA1IT2Ma6lOk7xTTp7YhHmRu0cNks8MD76REYKJinrgUD6Evhg+Ezq5i8ZnIGvyOGg6M982L4b1vWr8nJMyijfWns5drMZR0fTKXeQm2sx7F66q2O6pfSab7GZm7BnklOAAvAxL8bMNQZbfcVnbIynGW8c6fuFLzldEGKPMnKuLbHUFxwaTV61JOnAMKhHMy4fVNHrqLprzi5txzeetbfHcrV+J740vOUaX65613nPp43zJ9fFpD2W6fM/a9yobuhY/tGaxotOuN2nZ/TN6fYD0pi6mhLKWuxir4vW63+EPGJE9+AqCDFXXsNCP+rlhf3KsLPwwV3oXX02f5KCE8GTLcifvZA+1lkQeOXZj/b4wqRJnuGpGdwz9+RHQgsmCDWO9qdFB+tvDehpnHZoWDA9BQUcnEz822RN6tbOr+F2jw0oQeD4JykPF2o+J6KDfQsWK0nG+bXPAO3qWRSe1YMvut4ns33YVrH04o5n8zcJRkeMeAKc9mQTyH0zSfapXi5yzU3zxQ2N1+PACtWqZz2u260h5bXSCUY9jchyg7NyE48GyO4NkJy3tQ2C21jUvO7xoZCAysdVQiyjSz/c7T3il9cNc3dW9PI4D7DKPcmBiMhApsjRu0uhbquigatR8LN6mn7NqGraAyrLTZMZLiilBLKDI+UMFfS0xtFdtn4ap8NXrGqxESSvuBw5grOOtc39d6ILpa1JyfFfNFvzYc9XHUIsq0uOW2UxqLV6/7oXCLmhGFzOJvFogy7sjcjHAnOXyXvzGy5Oct7W4CPVsQJnCNjgt+sXfmBKT+Dg6VF+OoOxPv2qCXnRAOKZg8DhOR6B5FbWtp9WPIfjHzi1fR6PgZ1YgyIGq/HV+7Gn13Sfm2N1EuLWFSvQj2hHYd3aAJMYDngTBOa+EyWEggwUiMQlwMBV5sCNELiTweSOoFOc1Ilc9ypsW9nYur3oi/Nepuox5RHsQ4RoDF1TPjfrLtnWAwej07OK4jfTYIKQAJaX1IYKMfnNOQQ455CVOFOd9IoLtTD3M8yFOd35l1TOfLfqVm9TGtk1mt94QqO/KVmcYp5p7C+zf/QdmBTzPPfILnmcDe/F9GDhgwjieDSbKGlYEc4x1r/ArlG0h1a5yI+mvHV7OgbaDy4w5sOhUpFXXyszGFqESrO7/g/Unkv4eXvbrKsUrOV0p+AMFiPgiYwTsTkCU44dr4CaKOksaJRnJmuXhXafUaTjRrW+6YiXNNYiJLlDq672MSUQmQti0937g3Px2/vGSEj0LHzisL6FAOmphDefvaWxprFowaMTvR9qPejWbi4oG5YxpRA7sTFz6EORgxFlLm40TK2LwPxs/HZk/+n7f6JKLGCIJPIuokosYIBMZIM09S1BhB1NGlPjy3SjHltSyrZy2ZwZBT5bKgczhGx9PvZLDkLBWFHexRs6jeaIn9oczChh5Myum0unutYP+CB0cUKheaU6Z7rHr26h1FL3NCcOmW7ta33DLnx+3L6l8X/C3dCZUygh+V3rOp0j0QvA5vk+v4y4kZqLAyCR/RY08wSrGQsGN+PomuDo6oWC7/up35A9fxf5hB3y4qxPjXWaOfH0uUVf6TbRXRkHOHCoT+yfuzyMziKAZ140ngob4v/odCFB/0fTmB3WHdzYkoUpVzLMEl4yu2votzxIFhlZfFj52APR0t/ZXazr6pSkVcx+GAqCwv4M0AUFj/xlaAGxifimN4QvnTJ+Va+iAKzf8SVmLHoz8VJUuNOQlx0Lx+talpN5rssRP4U5U97Oz4K8cqZb3RSeGitLbuLlfKRbSgv4k6Y41CRIlgS9qAN9Fd+Vb+0/3/RSZjFflYEB5QU0RAfx0Tyw3whcQuDx9r9Kaslv8DrWacVnnhIUMAAAAASUVORK5CYII=;" vertex="1" parent="1">
          <mxGeometry x="400" y="42.73" width="47.25" height="45.46" as="geometry" />
        </mxCell>
        <mxCell id="4ZW2YdV1ndq5W9FQAFgS-6" value="Camera" style="shape=image;verticalLabelPosition=bottom;labelBackgroundColor=#ffffff;verticalAlign=top;aspect=fixed;imageAspect=0;image=data:image/png,iVBORw0KGgoAAAANSUhEUgAAAGwAAABqCAYAAABZP7TQAAAAAXNSR0IArs4c6QAAAAlwSFlzAAAXEgAAFxIBZ5/SUgAAE+BJREFUeAHtXXt0XMV5n5l7d1dvafVGliwsS7KMQRbBPsLBgDEQYkpomkOU0po0rQFjA07rtIf8UXrEadoczkkCJchGTginzss4pU1x0kACgRNTWoMhDWBbtl42yLIlS6u3Vrt770x/c1fP1equdrW7Xkl3fK733pl7Z775fvPNfPPNNyNCrGBxwOKAxQGLAxYHLA5YHLA4YHHA4oDFAYsDFgcsDlgcsDhgccDigMUBiwNLjgN0ydUoFhWqF6w4o8PhcQwqbFQTRhEFBeYldXX50wPfCxGvZPhEZ+V1XnIL1YIVYAEWjCsyTghKvttidzpYEvfwXIVq5TpR0gjjMeUZY2yMUtqWcVFtO1u/aiyQPDUwYtk/S6CeeIJm7v8wk6kp1xNd3Kuq5LNETcmTzPKL1xSXJHqBcVOp4d9RyojwjjUN5Wv/hK9/FJhDTFtLYGGL4Tmr4UwNo+zPBeH3UKZeadAsuJS4+JHPFEK4eN7VzR4hAVJmSRhgyHymebWi0M9Dtr5AhbgK3EqlhCqE6/EDKaAkNBh7pmMkeYCQGd3isgUsc985p0q9d0F47hZUfIpQkkUFScOvjRCaGD1PZgCKeFw+gGFsynj+pFPxqrWEKNso9dailysEQNmQplQMRIkB0myMZsQsecDyGrrTdDpwNW04s5Uzey3AKcOAdAUR1IlfNoMbi+BhaQJW/4aak7eiQlB6gy4GNkF61grGiiBCVwATux+XOCoRUWwISwqw7IaWEkjQRk74Rs7oVZSISvBqJaEsxa/lSZAWJ1ATmC96wLKe+n0WSU6tZjq5FmBUC1xQGSoAUKZfdwBAUi1fImFRAlb8nU+SR2zecsL0qzEI1QhO11NGawBWPiEMgjUuSfGcO8WpQSwewJ5pdmSqYoVCacUod1cxSjdwQm8QTFklAZL//L3d0pGmYG0gsQFrPG7L03JyhMKLdaJXUJ1cD1huhK3takGZDZNczHEv3+Q2GENjHZd4gMEynlV6NkN1ewq4pq7iVN8AXLZQweTk1on+zs+TJTQuhQNywgBW1Hg8xcPTndTbVMhH1RpO2GcJFZsBT+EERuFUbKm+e3kBw3wpO7s4ReVKstsnrqOKfrdQVQBFSqCKw2w9Lk1LlfsR1Cv+gMnlizeJUnC8y+FzDJUSG6vTiP4lzJ+qCAU5bNwyboEVFM64A1b43d/njtkyP+dL0e8nqmOTNLMKHYurxhLG8lIggiISIjIugDkbWzOFYFso1//US8RWJrgTk1qF6HgKQeCyTZbG6CDm6NgB9kJ7UpZbq8XE9vNC41sY4yvB/GRcDlyLzuiaKA0nuoAdFkpWb0s11fk2OqptQQu5Eo0kC/BkQpTGja6JUvUEp4NizXlMmSVj0QCMZu0/VapwZQvvadmKedIaorAiAJQLwBzQHSanTgnOokQjj9KktFkjRoSACZreeCFH1UY2oQncDFCuw6rtFbhfgd5OWsb9Xd6s4hKNJ4lODxwEAkJYgOU+2ZSup9MaIpo3Uc5qkFcF5KcMnj7ZhiHPUMUtlAJ4HNXH0IBh3pTX2FbOufZpWB9q4PewDmPSWnR5RQROdMbkdpmaiaKKxDwzCwlYznPtGzWhb4cU3Q6wVgmFOfwWCEiSNbmdJ5uj95q5eg1DrOD8LkwI/gJjUxUgchA+bomIHg1WTmFwwBSwvLxLKYRi/sSUjKW0ahsGfxLuVVPAPJ5Ldmjlpu8kXI2WCkFYkaWe9FkaXMgxLGj9KZE2pUtI68E4NjPTQB/MgGSZHxYgZax/UjiRPvHdxHPQgscj/e+qyKMAmeSZvboo07juA3eG+sUFTyD9poDRJH0mGMbXlAOkDnB9H9e9/6b6AF4EwY9WBB/KT1QG/ceRQZj2IOj4KrSfpdQL+MD0j6CJ/y/Z+2l3IIdMAQt82XgW3A1/v7f7dpV/O2h6/CI7yeETX8/usT+AIlNxLagNxI9s05I0tMQPAdaTrocqDgd7M+yWCfTHwJmeYJnFPa5unRddvdw5B9V1kQdFxShDfqETscO1KzhYsoZhSxjGH/RAEwNOQjAJBEnhCtJ7JwR5IYgw+El0OBP9M6NJjb27S86bfRE2YP7MFn+DNmNK3NKkAi54J8B63M6VIxddxb2hyo4QsFDZWukhOWBs2tOPYY77OKxH71y8UDZE6qHQhQghAJMblGYqgbLjkR1QREHaJfedTBU0eQUXLIdRn82j865MX8q5jr3F2LiGIXc5BAMs7V8xu9nnoAMfde7cILXBedXdFDAxNkxJEubOM4OA0XdmTIin9GdP5aiE1dL9Lbdr1L4aa3NZhOjJmDQwm8LcI+pYT86+5uNEO/1r1TN2ouvv1o+EyDIgOZDEgOTEeZSEDlKufYty5XBPflkrqYN7bBjBFLDxedgMgTJG+JCCO0WB83tt1UTT70XMZ6CsrMJqJjYpQHHFYDuRMabRHBaVjcRGb/epKW/mNJw91JtXemb+lZE5JTxoGkhsgVb7tF2n/35xz2ppeAg7mAIWdm7TP6ivZzn5f7YVYH0FxovbIZXYqACmwvfGsPJzuErJtWjFZsOzXKYpwue4eCWnvjJn7+nn+urFMfTrQc+rmF5UQt8bWqAYRaXfpkTZ71KTXyEPF+E5shAzwLLytt8MDWgPILrV2J/FpZmfXKRCfx894RnMDLplxworjJNC8jB83Qg0CyB5hZC4ezDjULMLW7jLD1oYMh0ZI2LylV8L7EWD/SUT4mDvI6tfX2g5MQEs90BrpdD0+9HN3eLfTMcHAdx7AORXaGlHicZP9u2pGDSIl96/hcWVsC5tg5T9Ca5rAZp0M7gbFe3LzT/twiz99EIrehm+R+/H2/HfS0IXP+7ds+YP0aAh6oDJvVtuzV0HCboJAKVhePKg5zsKaXq6t7vjTVJ/y8wuDs8uQk6iczyV29h8hgvYBoW4HkCnQtLu1JnyEXlDtM51lE80mBCDPKRqfRLXD71ez49H/vqa8XOMFl5S1AEbSfasxk6TO8D0IkOroOQEyHyhd1fla5JcA1DbaCnmHllQQphO+cWB3RXtkCrRQyqOZO9vhu8izUPrrEZcKYxOm/I/bHm1m5DWhVc3LjkMoF7H0bs8bx8dftkVtsZrTmPUAaNc1MJ7Hh5U8gweMYox92VsujPAyms4kTYq3JuwQfw+kHUNMLIxwY5mH2h51lUhThtS5COvwGB2J9LLAVwKMlmnMXIdnhMeMHT7l0DvbzjX9/U9WvXf5qyPLDXqgGHHarWhuoMeVKAJEvJ+367VAwRjlY84NmJh5B9hj6wFmAbFVFXWUU2rzGpq2tFfLz527aGDOc+1vsO5uAHKejneKoOk4nSaRA7GXKob88sf+QQ7MPhoZUusqA1vBjwPKoDDSnQJKZAOeBeIswrXL8jPnM78Ikb5NgA6CZaRndwIYXPAAdV2h/OKtnQZp+viFMBCL4hAaSYkFlOChA1y0bCDC/3rRKPfGHy4PGZgSQ5EHTBIVyFkK0lmDsVjmFPFvwhnd2Rg0oUDTfySJdMngpDbXgUttXMh/e6BEeuFePqtHehZQWRa7pNvGWBOfJMQv+jv0Zigwer39atDP3VNaL4xJC7CLtF0WiRVeA0SYpcWDNTJeFnRqZdTMWIoIoEVAigK1c95xoYMwyVWsu0KwsRrGMDdvY9tHpp4ToRfak/GMXmjL2mj4qGhv10Tt/XBqEsYwOoCWDDk4o6xCjC7xGDwiO8CnOb+AMC8EKEpngMsonl8GufH+mtqhmWCarOtRMuFvRGB61BcBDT/RAmgHUetCd/YPwhF2TH0tcqQSyLRpDzqgOE4hndQI5fECz6MODuD1pTjyIaex9YMY4PlEfjs/D2uj7GsgBckcLwZAG53pGc0Q0vEgisidb6RCWyb9YezOqenxu8v9w/GK9GK8xTvJj7xL307ywZBu6xp3ELUAdMV/haoh2ET9ZCTXyZu67PRG/AgXOc7LmpK2guMKl8EaNuh/n5BCOUeZtd/1XVfgbSviZzG1q2QrpuAW7YhiZScghC+HzeOzF0Q6KNvYIXogaQx+2/941V8wZKkRTiGzY1zWlby6dEet5yDwD6ILUdCbAJ027MPNHe5Hqw4gYGohxw+3Jd3actJh9ejd+wt8SslO6BJNrRuhgLyN2AMJs1EHjDZjRZ9rC/Xe2ZuPsY4Bd03xmJorOIljfu+P8BtJ/r3lsxyP4sxFZPZRwjY5PezbjrqStw5jWcOcY2vB89vgpSlQb2/S2gkLXtf8880u/f1wbp1LoigMV4ZGdQLu7Ow/Q6q67vxvBlXGoCW+uRrGPd+TeBsM6ugOEWAihZI+kGmay8OPHLVjIaDrcArsXnxK2hcxVggek/h/EjPo1WdsSQtQsBMtUSSPJL8wYjD/T20SuxlZjVYPIGpSdwJAMpVr31bdsOZdsR34dQ1H4MbuOCtVQBVHpxSDelKMsY3XTuKpZif9Hsx+TYNMeiWpFIkhIau+W0m6A+ET7zes2dtx3Qy0Piux74DNDBxG1YbsN2K3Mgpa8N3F2I5rkUI2HTSZ9/Lbi77meZfUkU40MWhUnSDMZ4RnLgmxHowApqVGIBigUU9ngb2rEAl8SMZxTV88xYe96FTfIvsrohv92OAxYcwhr4OYp53KKm/7dw9bf0Kxylli6xbcdr2XlC7BTTb0BDxI4+tYMXy6HQ8xYzmCAGbewyTtMsgB+WCgxd/5hseknOvOgC1EQyQZxfiuDUYd6WLtcxG1hY1B1AQW9gTKT2G6eghNqi/3fNYxTzmXoDfyAB5LDT4JesT0PcLZHXQ1XX+eN/k6oKgac+05Dp0ip6C48gK+2YCj+rJgG+F0B0FHrcK03yiATZJpulN15cLR0jj8Z87valNVFVvg1mgFqr+SgAjj32Q5+zKAMcRIpWLs4j7nWD0tT7n++fJrjrdNPPoJ0oXdNn9vqjp+g8HHq1qnyzC2GzfVMK48scYWL9KFHXVDLAmX4z9TYQSZj6GzSB75wZfH4H7sRAf5X+/PV/TtWp4BJQZoAElOHZdAm6nbG73B+E738woKeIHNBgPlIt3MdM/6E0WPx/+q6pJfws5h+ztaV8DhfpL2Mf9ILrqXGivwcuChhQ8IXqxEQIWAQGYYEI3lgt5v4ng6xh9YvTF0pT2P7ChfTNtrPsd18NTGxCKGjtTejX3pyjVdmD+dS+6yvHdpzEiZx7Zxg+weRAT/1dEL8D6L4Vr33D1VLX111dg6WAqeH0jVfAZwu4Y5Z5xk+hUYrA7Gtu/yyKLXK6AoU8TA5gQPOW6VPHkXJ5ZWBC/Eqazq/FuMHguS1xkgIXpSBrTmknbo+zZ5hswv8L7H+OM4L29D1X8p9lnOAmVCZ2oUnlMlBAJYPAj1NMSpQJAKwcSEHqe4VfZMRlmxxRF/WLPziuNhVXTesyhW5h+E+PE8AGjNJ0I5VbM9Pdy7nvJpyWNEa87rm0w2SZN5GqWnkQfQG8lFzbNy5dLOIL3QSk95LUpT4zcX9pNdsaYszHKPnzAoC6BlhLw6HHGbF9z2LHiYI/vuV9c0oA+DQ4vUtJDgoV1VLls/zQnYz8ZOX/NAOZ7CTMopT7dVmC3YSJOxFrQhTUnnBWObgAN8VXXIxU/CMTdFDDjNLGkoCMuMhZygdG/yBiYa6yfjUEFPA/JdgFThP47OP40eBk5OrSzGlPCMAJclNEuwEF8E7Is4535vDVFABpe0nMt38ZBQjcDLDS+SauNijI/mXpx6s4UMP9pYl7zFjyVV6LdDaKx/gck8QBN0j4c2lE1DzNXQBVkO59iYkBiwGN4UBkfp3+zKVs4bVhKEiv85YznCe8Ioevwz5wdTAEbyD02mNNzbSfMfKNoASmzP0/EGLQvwdtglfgpjgE81Mf6T5MdG6YZ/cKgGYMecJi/kih76cA/UmpSHA5ac9gEx3gy/yJMASN1dTrf33IEHgzSMbQW9MsTF41KzEWHkW6mavs5YJrHXHmHisdCo4YurAU9zcvE5321b89Vn4AXEbT9UCUFT8fYU+YbGpZLLX6Pr+CvTcYmM9sKGJJtkxHzuDEHDBlkdinv9eeRp6jQytF+YCwDS9CE58pb6Pi7QlhXkcu0Qd+B75tUGczyCPrdfCLhDSKEep5kZpzs254zKG0U8QtGdf8IKxDDzmdb32XwLDIrG4sWqXBTr0NzyjV7LzAtJGDjf5r2//ChvKxgxgHK1mI14n7K+Gegr4xJL79gr8PvUq6np6PZrkd6WCp2SMCCFWjFzcEB2fEwWowxCZccmUzm84CSzt1RzVHA8rUlzsmQBScYI0Hw0WDBeSMDkyYQjewXeR5yrMVgG2JqHtdKWoCZsduYMsdPy5xBCsa5Gc/jDxZgwbgyEYdFMCgHxvR5Iipuv3MoLBZgIRCwusQQDEqkZPRJHlzShTxhgiVhJlDAcxkb6onfldzkvXgmWfMwE25T3dfPVdZNjbOh5jTumORglgTZncMYZPaVBZgJd9LT7R/0u8l3iKZ1QLUvhoJvZiU1ySkgCflAckuRJ/xFwvOrsQAL4OX0x7N/uWoMrm7vjvrkXm1fMqwYhrVy+jtU8XtqT48zuxe6D6ZWm9AVYcd+gh2Qsi/jfafZN9PTLMCmcyPIfedOw6/+XJCkBUdlP9v8IkwXn0NGswGTE/YgwVI6gjAlXlFUSfoYsMzwhZwsew77igXYJIfif4N90kMYx8JaXLUAiz9OkyW6XOXDAOwV2O1ll4sVGbjK4KI4YRvDZVBsrDFskn2X4QZn/LIDrQc0TZwDOmU4mtAuN11RDgdWob95GSiyirQ4YHHA4oDFAYsDMePA/wODuTsyMtwT1gAAAABJRU5ErkJggg==;" vertex="1" parent="1">
          <mxGeometry x="610" y="42.730000000000004" width="40.75" height="40" as="geometry" />
        </mxCell>
        <mxCell id="4ZW2YdV1ndq5W9FQAFgS-8" value="" style="edgeStyle=segmentEdgeStyle;endArrow=classic;html=1;" edge="1" parent="1" source="4ZW2YdV1ndq5W9FQAFgS-5">
          <mxGeometry width="50" height="50" relative="1" as="geometry">
            <mxPoint x="440" y="350" as="sourcePoint" />
            <mxPoint x="400" y="133" as="targetPoint" />
            <Array as="points">
              <mxPoint x="424" y="133" />
            </Array>
          </mxGeometry>
        </mxCell>
        <mxCell id="4ZW2YdV1ndq5W9FQAFgS-9" value="" style="edgeStyle=segmentEdgeStyle;endArrow=classic;html=1;exitX=0.5;exitY=1;exitDx=0;exitDy=0;" edge="1" parent="1" source="4ZW2YdV1ndq5W9FQAFgS-1" target="4ZW2YdV1ndq5W9FQAFgS-2">
          <mxGeometry width="50" height="50" relative="1" as="geometry">
            <mxPoint x="380" y="300" as="sourcePoint" />
            <mxPoint x="430" y="250" as="targetPoint" />
            <Array as="points">
              <mxPoint x="583" y="83" />
            </Array>
          </mxGeometry>
        </mxCell>
        <mxCell id="4ZW2YdV1ndq5W9FQAFgS-10" value="" style="edgeStyle=segmentEdgeStyle;endArrow=classic;html=1;exitX=0.5;exitY=1;exitDx=0;exitDy=0;" edge="1" parent="1" source="4ZW2YdV1ndq5W9FQAFgS-6" target="4ZW2YdV1ndq5W9FQAFgS-2">
          <mxGeometry width="50" height="50" relative="1" as="geometry">
            <mxPoint x="380" y="300" as="sourcePoint" />
            <mxPoint x="430" y="250" as="targetPoint" />
          </mxGeometry>
        </mxCell>
        <mxCell id="4ZW2YdV1ndq5W9FQAFgS-11" value="" style="endArrow=classic;html=1;entryX=0.983;entryY=0.36;entryDx=0;entryDy=0;entryPerimeter=0;" edge="1" parent="1" source="4ZW2YdV1ndq5W9FQAFgS-2" target="4ZW2YdV1ndq5W9FQAFgS-3">
          <mxGeometry width="50" height="50" relative="1" as="geometry">
            <mxPoint x="380" y="300" as="sourcePoint" />
            <mxPoint x="400" y="130" as="targetPoint" />
          </mxGeometry>
        </mxCell>
      </root>
    </mxGraphModel>
  </diagram>
</mxfile>
